# xmcd CD database file
#
# Track frame offsets:
#	150
#	24879
#	34008
#	63987
#	91094
#	98703
#	128387
#	150628
#	175905
#	202439
#	208910
#
# Disc length: 3207 seconds
#
# Revision: 0
# Processed by: cddbd v1.5.2PL0 Copyright (c) Steve Scherf et al.
# Submitted via: CDex 1.70beta2
#
DISCID=8a0c850b
DTITLE=クリヤ・マコト - 新世紀スタンダード
DYEAR=2012
DGENRE=Jazz
TTITLE0=魂のルフラン
TTITLE1=いつも何度でも
TTITLE2=創聖のアクエリオン
TTITLE3=ブルーウォーター
TTITLE4=次回予告
TTITLE5=For フルーツバスケット
TTITLE6=空色デイズ
TTITLE7=ライオン
TTITLE8=風の谷のナウシカ
TTITLE9=2EM20_KK_A09_KURIYA
TTITLE10=God knows．．．
EXTD=YEAR: 2012
EXTT0=
EXTT1=
EXTT2=
EXTT3=
EXTT4=
EXTT5=
EXTT6=
EXTT7=
EXTT8=
EXTT9=
EXTT10=
PLAYORDER=
